<?xml version="1.0" encoding="UTF-8" standalone="no"?>
<!-- Created with Inkscape (http://www.inkscape.org/) -->

<svg
   width="208.92744mm"
   height="186.12358mm"
   viewBox="0 0 208.92745 186.12358"
   version="1.1"
   id="svg5"
   inkscape:version="1.1 (c68e22c387, 2021-05-23)"
   sodipodi:docname="wangjinshi.svg"
   xmlns:inkscape="http://www.inkscape.org/namespaces/inkscape"
   xmlns:sodipodi="http://sodipodi.sourceforge.net/DTD/sodipodi-0.dtd"
   xmlns="http://www.w3.org/2000/svg"
   xmlns:svg="http://www.w3.org/2000/svg">
  <sodipodi:namedview
     id="namedview7"
     pagecolor="#ffffff"
     bordercolor="#666666"
     borderopacity="1.0"
     inkscape:pageshadow="2"
     inkscape:pageopacity="0.0"
     inkscape:pagecheckerboard="0"
     inkscape:document-units="mm"
     showgrid="false"
     showguides="true"
     inkscape:zoom="0.70710678"
     inkscape:cx="537.40115"
     inkscape:cy="276.47875"
     inkscape:window-width="1920"
     inkscape:window-height="1017"
     inkscape:window-x="-8"
     inkscape:window-y="-8"
     inkscape:window-maximized="1"
     inkscape:current-layer="layer1"
     inkscape:guide-bbox="true">
    <inkscape:grid
       type="xygrid"
       id="grid880"
       originx="-1.1602884"
       originy="-1.3405997" />
  </sodipodi:namedview>
  <defs
     id="defs2" />
  <g
     inkscape:label="Layer 1"
     inkscape:groupmode="layer"
     id="layer1"
     transform="translate(-1.1602884,-1.3405997)">
    <rect
       style="fill:#cf283c;fill-opacity:1;stroke-width:0.685189;stroke-linejoin:round;stroke-opacity:0.364706"
       id="rect3237-4"
       width="17.43586"
       height="58.622944"
       x="113.49461"
       y="121.42154" />
    <circle
       style="fill:#d55f6f;fill-opacity:1;stroke:none;stroke-width:0.124015;stroke-linejoin:round;stroke-miterlimit:4;stroke-dasharray:none;stroke-opacity:1"
       id="path11898"
       cx="154.50117"
       cy="69.028488"
       r="52.5" />
    <rect
       style="fill:#cf283c;fill-opacity:1;stroke-width:0.685189;stroke-linejoin:round;stroke-opacity:0.364706"
       id="rect3237-6"
       width="17.43586"
       height="58.622944"
       x="177.99942"
       y="121.42154" />
    <path
       style="fill:#cf283c;fill-opacity:1;stroke:none;stroke-width:0.105049;stroke-linecap:butt;stroke-linejoin:miter;stroke-miterlimit:4;stroke-dasharray:none;stroke-opacity:1"
       d="m 154.37713,12.663999 c -3.18916,0.664094 -2.83396,2.496746 -2.72843,4.24707 l 0.54568,2.831381 0.81852,3.114515 c -1.00633,0.801538 -1.09136,0.849414 -1.9099,1.698828 -1.09136,1.132553 -1.09137,3.680797 -0.54569,5.379625 -2.46061,4.213201 -7.10259,7.988759 -12.23769,11.406327 -4.13289,2.750571 -13.68239,4.449399 -13.68239,9.829021 0,4.530214 4.09266,6.229066 7.91246,9.626723 v 5.662763 c 0,0 -5.27724,4.342805 -9.27667,5.945878 -3.99943,1.603073 -9.54951,2.831377 -9.54951,5.662754 0,2.831388 7.91245,6.795334 7.91245,6.795334 v 5.662759 c 0,0 -2.45559,3.11451 -7.91245,4.530203 -5.45687,1.415681 -8.1853,2.831362 -8.1853,5.66273 0,2.83137 7.91247,3.96396 7.91247,3.96396 v 16.98827 c 41.54631,0.0668 41.6578,0 81.85291,0 v -16.98827 c 0,0 8.45813,-1.13259 8.45813,-3.96396 0,-2.831368 -2.72844,-4.247049 -8.1853,-5.66273 -5.45685,-1.415693 -5.72969,-4.530203 -5.72969,-4.530203 v -5.662759 c 0,0 7.09391,-3.963946 7.09391,-6.795334 0,-2.831388 -4.64847,-4.010348 -9.14532,-5.544398 -4.49684,-1.534049 -10.22653,-6.064234 -10.22653,-6.064234 v -5.662763 c 4.78639,-2.438352 7.09392,-5.379632 7.09392,-9.626714 0,-5.662754 -9.52746,-7.12533 -14.96569,-9.852855 -5.72121,-2.869449 -8.77166,-7.135432 -10.95441,-11.382502 0.81853,-1.69883 0.54569,-4.247072 -0.54569,-5.379625 l -1.90991,-1.698828 1.36423,-5.945896 c 0.41367,-2.884335 -0.86691,-4.115386 -3.27411,-4.24707"
       id="path1097"
       sodipodi:nodetypes="ccccccsccczzcczzcccczzcczzcccsccccc" />
    <rect
       style="fill:#cf283c;fill-opacity:1;stroke-width:0.638101;stroke-linejoin:round;stroke-opacity:0.364706"
       id="rect3237"
       width="17.43586"
       height="50.842434"
       x="145.74709"
       y="124.70415" />
    <path
       style="fill:none;stroke:#000000;stroke-width:0.965;stroke-linecap:butt;stroke-linejoin:miter;stroke-miterlimit:4;stroke-dasharray:none;stroke-opacity:1"
       d="M 50.897239,51.600199 61.480572,63.506448"
       id="path17077"
       sodipodi:nodetypes="cc" />
    <path
       style="fill:#be0f2e;fill-opacity:1;stroke:none;stroke-width:0.264583px;stroke-linecap:butt;stroke-linejoin:miter;stroke-opacity:1"
       d="m 103.62168,53.117083 c 2.9728,-0.377636 5.21337,5.120859 5.17608,9.370494 0.47522,9.211378 -1.9585,16.724228 -4.55138,21.864478 -2.83801,6.12747 -3.38636,12.717493 -3.30199,19.596415 -0.70251,18.26939 4.90663,30.85828 10.80059,43.19084 7.97953,9.58655 16.45553,11.72591 24.73684,16.78571 3.57327,2.52417 5.68995,3.70969 1.58208,7.70636 -4.33363,4.70652 -3.02375,8.15191 -9.15458,11.98214 -13.96063,7.40348 -23.93622,2.48956 -34.328651,-1.13587 -4.10422,-1.6665 -1.35506,-7.45354 1.135878,-11.35875 1.876458,-3.51248 -7.986628,-29.03056 -11.989798,-43.54189 -1.054089,-4.08741 -1.74558,-8.22342 -2.152209,-12.39832 -0.169798,-1.74333 -0.289924,-3.49343 -0.366041,-5.24961 -0.372639,-8.59761 0.30953,-17.340715 1.38238,-26.146335 0.65059,-3.48258 7.122,-15.732492 11.75269,-23.430132 0.545051,-0.908261 1.212568,-1.845965 1.979972,-2.734135 1.923541,-2.226222 4.474699,-4.141244 7.298139,-4.501395 z"
       id="path16811"
       sodipodi:nodetypes="cccccccccccssccsc" />
    <path
       style="fill:#f5abb8;fill-opacity:1;stroke:none;stroke-width:0.264583px;stroke-linecap:butt;stroke-linejoin:miter;stroke-opacity:1"
       d="M 101.41137,95.379537 81.79122,89.82512 c 0.236669,-2.715833 0.145905,-5.604348 0.875696,-7.501971 6.656025,2.175291 13.598178,3.652417 20.254174,5.827709 -0.73196,2.621149 -1.10523,4.519387 -1.50972,7.228679 z"
       id="path32497"
       sodipodi:nodetypes="ccccc" />
    <path
       style="fill:#eb4036;fill-opacity:1;stroke:none;stroke-width:0.264583px;stroke-linecap:butt;stroke-linejoin:miter;stroke-opacity:1"
       d="m 106.57201,54.774952 c -3.12286,-3.128381 -5.63747,-0.799948 -8.719065,1.291219 l 1.351631,-2.316662 c 2.065914,-3.047161 4.953804,-2.387105 5.994894,-1.356739 z"
       id="path41079"
       sodipodi:nodetypes="ccccc" />
    <path
       style="fill:#070505;fill-opacity:1;stroke:none;stroke-width:0.1;stroke-linecap:butt;stroke-linejoin:miter;stroke-miterlimit:4;stroke-dasharray:none;stroke-opacity:1"
       d="m 90.756969,22.821824 c -4.35231,0.69113 -5.66081,9.068775 -1.18997,11.653739 -0.10636,0.437661 -0.27992,0.841718 0.12282,1.53393 -0.56012,1.137567 -0.36398,1.790376 0.0256,2.66893 -0.98629,2.539124 -0.37531,6.048772 1.61859,7.851234 -0.25127,4.979845 1.40729,7.423691 4.96015,7.352144 1.949374,-0.236254 4.957661,-0.592226 2.778124,-7.110677 2.090187,2.511779 4.859287,5.163769 7.471167,1.568931 2.03102,-2.894071 1.20868,-6.427059 -4.67399,-8.651044 -1.02858,-2.589828 -2.708377,-4.31136 -5.585281,-4.436769 0.21428,-0.525868 0.4493,-1.051736 0.0631,-1.577604 -0.51365,-0.518896 -0.50245,-0.731513 -1.9612,-0.716201 3.580954,-7.045048 0.82122,-10.19681 -3.62912,-10.136613 z"
       id="path3376"
       sodipodi:nodetypes="ccccccccccccc" />
    <path
       style="fill:#f5abb8;fill-opacity:1;stroke:none;stroke-width:0.1;stroke-linecap:butt;stroke-linejoin:miter;stroke-miterlimit:4;stroke-dasharray:none;stroke-opacity:1"
       d="m 104.15905,47.967111 c -1.32292,-2.645834 -2.64584,-3.175 -5.820818,-3.175 -3.174987,0 -11.906229,3.968748 -7.937479,17.197916 3.968752,13.229168 32.184047,28.648137 30.427047,42.333323 -1.75701,13.6852 -17.98296,19.62157 -17.98296,19.62157 0.59544,2.35197 1.0651,4.13984 1.64161,5.82085 0,0 18.3402,-10.89395 20.3101,-25.44242 1.96989,-14.548455 -29.380955,-34.255198 -30.427045,-44.979156 -1.0461,-10.723958 3.704147,-12.435417 6.614545,-11.377083 2.91041,1.058333 4.23333,4.233333 5.82083,7.408333 0,0 -1.32292,-4.762499 -2.64583,-7.408333 z"
       id="path12267"
       sodipodi:nodetypes="zzzzcczzzcz" />
    <path
       style="fill:#be0f2e;fill-opacity:1;stroke:none;stroke-width:0.264583px;stroke-linecap:butt;stroke-linejoin:miter;stroke-opacity:1"
       d="m 96.306901,57.675329 c -14.721599,5.78882 -34.298001,0.714822 -39.50366,0.892505 -0.360898,5.892419 0.192619,12.10631 1.167303,16.74577 8.04041,38.272006 18.840877,38.172286 28.193575,39.700266 -3.145692,-17.524435 5.687118,-37.444573 16.654371,-57.791621"
       id="path22122"
       sodipodi:nodetypes="ccscc" />
    <path
       style="fill:#cf283c;fill-opacity:1;stroke:none;stroke-width:0.264583px;stroke-linecap:butt;stroke-linejoin:miter;stroke-opacity:1"
       d="m 19.147239,11.912699 1.322917,6.614583 v 1.322917 C 3.2722424,41.016866 -2.0194243,62.183532 3.2722424,68.798115 9.8868223,78.058532 35.856239,66.361857 50.897239,52.923115 66.772239,39.693949 85.293072,10.589782 74.709739,2.6522848 72.063905,0.00645184 52.220155,0.00645184 25.761822,15.881449 l -6.614583,-3.96875"
       id="path16111"
       sodipodi:nodetypes="cccccccc" />
    <path
       style="fill:none;stroke:#000000;stroke-width:0.264583px;stroke-linecap:butt;stroke-linejoin:miter;stroke-opacity:1"
       d="m 17.485325,23.794144 c 6.35,0.79375 12.245247,-3.150196 12.50983,-10.293945"
       id="path17397"
       sodipodi:nodetypes="cc" />
    <path
       style="fill:none;stroke:#000000;stroke-width:0.264583px;stroke-linecap:butt;stroke-linejoin:miter;stroke-opacity:1"
       d="M 26.439817,21.305407 53.543072,50.277282"
       id="path17641"
       sodipodi:nodetypes="cc" />
    <path
       style="fill:none;stroke:#000000;stroke-width:0.264583px;stroke-linecap:butt;stroke-linejoin:miter;stroke-opacity:1"
       d="m 25.232656,22.231448 c 4.14696,12.650078 11.227558,24.68603 17.727083,36.777084"
       id="path17643"
       sodipodi:nodetypes="cc" />
    <path
       style="fill:none;stroke:#000000;stroke-width:0.264583px;stroke-linecap:butt;stroke-linejoin:miter;stroke-opacity:1"
       d="m 23.909739,23.025198 c 1.291797,15.832841 4.357042,29.670551 8.466667,42.333334"
       id="path17645"
       sodipodi:nodetypes="cc" />
    <path
       style="fill:none;stroke:#000000;stroke-width:0.264583px;stroke-linecap:butt;stroke-linejoin:miter;stroke-opacity:1"
       d="m 22.851406,23.289782 c -2.333909,15.764945 -2.337665,31.154059 0.79375,46.0375"
       id="path17647"
       sodipodi:nodetypes="cc" />
    <path
       style="fill:none;stroke:#000000;stroke-width:0.264583px;stroke-linecap:butt;stroke-linejoin:miter;stroke-opacity:1"
       d="m 22.057656,23.554365 c -5.443391,16.051389 -7.87389,32.102778 -7.14375,48.154167"
       id="path17649"
       sodipodi:nodetypes="cc" />
    <path
       style="fill:none;stroke:#000000;stroke-width:0.264583px;stroke-linecap:butt;stroke-linejoin:miter;stroke-opacity:1"
       d="M 21.040664,23.761071 C 14.060236,39.649666 9.5549743,55.732167 9.0930736,71.973115"
       id="path17651"
       sodipodi:nodetypes="cc" />
    <path
       style="fill:none;stroke:#000000;stroke-width:0.264583px;stroke-linecap:butt;stroke-linejoin:miter;stroke-opacity:1"
       d="M 20.205573,23.818948 C 11.975029,39.066589 7.1831088,54.608967 5.124326,70.385615"
       id="path17653"
       sodipodi:nodetypes="cc" />
    <path
       style="fill:none;stroke:#000000;stroke-width:0.264583px;stroke-linecap:butt;stroke-linejoin:miter;stroke-opacity:1"
       d="M 19.011444,23.926261 C 13.342136,36.233253 7.3183098,43.475675 2.4541005,67.284061"
       id="path17973"
       sodipodi:nodetypes="cc" />
    <path
       style="fill:none;stroke:#000000;stroke-width:0.264583px;stroke-linecap:butt;stroke-linejoin:miter;stroke-opacity:1"
       d="M 18.216319,23.856103 C 12.096862,33.817607 7.2112788,40.786947 1.2878675,62.381969"
       id="path18065"
       sodipodi:nodetypes="cc" />
    <path
       style="fill:none;stroke:#000000;stroke-width:0.264583px;stroke-linecap:butt;stroke-linejoin:miter;stroke-opacity:1"
       d="M 27.531223,20.164391 C 41.009966,25.338773 51.556944,33.279556 62.47276,41.016865"
       id="path18157"
       sodipodi:nodetypes="cc" />
    <path
       style="fill:none;stroke:#000000;stroke-width:0.264583px;stroke-linecap:butt;stroke-linejoin:miter;stroke-opacity:1"
       d="m 28.34151,19.18874 c 14.488526,0.812362 27.723162,6.849268 41.208854,11.840105"
       id="path18325"
       sodipodi:nodetypes="cc" />
    <path
       style="fill:none;stroke:#000000;stroke-width:0.264583px;stroke-linecap:butt;stroke-linejoin:miter;stroke-opacity:1"
       d="m 28.837604,18.130407 c 12.37946,-2.200595 28.494551,0.08157 45.832719,3.831423"
       id="path18455"
       sodipodi:nodetypes="cc" />
    <path
       style="fill:none;stroke:#000000;stroke-width:0.264583px;stroke-linecap:butt;stroke-linejoin:miter;stroke-opacity:1"
       d="m 29.350234,16.989391 c 9.808768,-3.73698 28.199901,-3.25967 47.845786,-2.324019"
       id="path18585"
       sodipodi:nodetypes="cc" />
    <path
       style="fill:none;stroke:#000000;stroke-width:0.264583px;stroke-linecap:butt;stroke-linejoin:miter;stroke-opacity:1"
       d="M 29.697499,15.616865 C 42.58367,11.212688 57.810512,8.4804199 77.663742,9.0527126"
       id="path18829"
       sodipodi:nodetypes="cc" />
    <path
       style="fill:none;stroke:#000000;stroke-width:0.264583px;stroke-linecap:butt;stroke-linejoin:miter;stroke-opacity:1"
       d="M 29.92901,14.360094 C 39.591673,10.621391 53.241975,6.0155394 76.65814,4.913379"
       id="path18921"
       sodipodi:nodetypes="cc" />
    <path
       style="fill:#f5abb8;fill-opacity:1;stroke:none;stroke-width:0.264583px;stroke-linecap:butt;stroke-linejoin:miter;stroke-opacity:1"
       d="m 85.377632,133.22736 c 0,0 -14.330298,9.78953 -14.142649,21.95952 0.18765,12.16999 14.56349,19.26914 24.990336,18.53364 14.039011,-0.9903 18.737001,-9.53835 42.516811,-15.81087 33.70955,-8.52402 38.41597,2.8521 41.23969,-2.97649 2.55964,-5.28348 18.42178,-4.67643 15.09306,-6.35252 -3.25832,-1.64065 -27.90324,-5.63452 -57.02058,3.39182 -20.30935,8.44275 -24.04125,8.46113 -40.216026,10.1699 -1.86168,0.19668 -12.418564,0.34568 -15.295915,-9.21109 -2.230685,-7.40895 5.146438,-12.49025 5.146438,-12.49025"
       id="path7096"
       sodipodi:nodetypes="czscsscssc" />
  </g>
</svg>
